<?xml version="1.0" encoding="UTF-8"?>
<svg id="Layer_2" xmlns="http://www.w3.org/2000/svg" viewBox="0 0 38.98 28.36">
  <defs>
    <style>
      .cls-1 {
        fill: none;
        stroke: #231f20;
        stroke-linecap: round;
        stroke-linejoin: round;
      }
    </style>
  </defs>
  <g id="Layer_1-2" data-name="Layer_1">
    <g>
      <g>
        <path class="cls-1" d="M14.48,2.18v-.98c0-.49-.48-.83-.94-.66l-1.39.33c-1.57.38-3.08.92-4.53,1.63l-1.17.57c-.33.16-.58.46-.69.82l-1.69,3.96c-1.14,2.68-1.98,5.47-2.52,8.33l-1.03,5.55c-.13.7.22,1.4.86,1.72l.22.16c2.42,1.7,5.08,3.02,7.91,3.91l.54.17c.82.4,1.81.06,2.21-.76l1-2.03-1.99-.8c-1.15-.47-2.26-1.05-3.29-1.75l-1.81-1.22"/>
        <path class="cls-1" d="M24.5,2.18v-.98c0-.49.48-.83.94-.66l1.39.33c1.57.38,3.08.92,4.53,1.63l1.17.57c.33.16.58.46.69.82l1.69,3.96c1.14,2.68,1.98,5.47,2.52,8.33l1.03,5.55c.13.7-.22,1.4-.86,1.72l-.22.16c-2.42,1.7-5.08,3.02-7.91,3.91l-.54.17c-.82.4-1.81.06-2.21-.76l-1-2.03"/>
        <path class="cls-1" d="M31.22,5.21l-5.82-2.62c-.6-.27-1.24-.42-1.9-.44l-1.35-.04c-.89-.03-1.78-.04-2.67-.04s-1.78.01-2.67.04l-1.35.04c-.65.02-1.3.17-1.9.44l-5.82,2.62"/>
        <path class="cls-1" d="M32.8,21.14l-1.81,1.22c-1.03.7-2.13,1.28-3.29,1.75l-1.08.44c-.6.24-1.23.38-1.87.42l-1.2.07c-2.7.17-5.41.17-8.11,0l-1.04-.06c-.75-.05-1.49-.21-2.19-.49l-.93-.38c-1.15-.47-2.26-1.05-3.29-1.75l-1.81-1.22"/>
      </g>
      <g>
        <ellipse class="cls-1" cx="13.74" cy="15.97" rx="2.78" ry="3.17"/>
        <ellipse class="cls-1" cx="25.17" cy="15.97" rx="2.78" ry="3.17"/>
      </g>
    </g>
  </g>
</svg>