<?xml version="1.0" encoding="UTF-8"?>
<svg id="Layer_2" xmlns="http://www.w3.org/2000/svg" viewBox="0 0 48.41 48.41">
  <defs>
    <style>
      .cls-1 {
        fill: #2db34a;
        stroke: #31b34a;
      }

      .cls-1, .cls-2, .cls-3, .cls-4 {
        stroke-miterlimit: 10;
        stroke-width: .5px;
      }

      .cls-2 {
        fill: #ef4337;
        stroke: #ef4337;
      }

      .cls-3 {
        fill: #6186c4;
        stroke: #6186c4;
      }

      .cls-4 {
        fill: #f9ba16;
        stroke: #f7b917;
      }
    </style>
  </defs>
  <g id="Layer_1-2" data-name="Layer_1">
    <g id="Google_Icon">
      <path class="cls-3" d="M35.55,19.99h-10.79v9.18s12.81,0,12.81,0c-1.17,3.14-3.41,5.75-6.27,7.4l7.73,6.46c5.56-4.39,9.13-11.19,9.13-18.82,0-1.44-.13-2.85-.37-4.21h-.07s-12.18,0-12.18,0"/>
      <path class="cls-2" d="M2.92,13.21s7.77,6.47,7.77,6.47c1.89-5.65,7.23-9.72,13.52-9.72,2.79,0,5.4.8,7.6,2.19l7.72-6.35-.08-.07C35.31,2.3,30,.25,24.21.25,14.94.25,6.9,5.51,2.92,13.21"/>
      <path class="cls-4" d="M10.86,29.23s-7.78,6.29-7.78,6.29c-1.81-3.37-2.83-7.22-2.83-11.31s.96-7.71,2.67-11l7.77,6.47c-.48,1.42-.74,2.95-.74,4.53,0,1.77.32,3.46.91,5.02Z"/>
      <path class="cls-1" d="M39.03,43.03s-7.73-6.46-7.73-6.45c-2.09,1.2-4.51,1.89-7.09,1.89-6.11,0-11.32-3.84-13.35-9.24l-7.78,6.29c4.04,7.53,11.98,12.65,21.13,12.65,5.6,0,10.74-1.92,14.82-5.14Z"/>
    </g>
  </g>
</svg>