<?xml version="1.0" encoding="UTF-8"?>
<svg id="Layer_2" xmlns="http://www.w3.org/2000/svg" viewBox="0 0 32.86 35.08">
  <defs>
    <style>
      .cls-1, .cls-2 {
        stroke-width: .75px;
      }

      .cls-1, .cls-2, .cls-3, .cls-4 {
        fill: none;
        stroke: #231f20;
        stroke-linejoin: round;
      }

      .cls-1, .cls-3 {
        stroke-linecap: round;
      }
    </style>
  </defs>
  <g id="Layer_1-2" data-name="Layer_1">
    <g>
      <polygon class="cls-4" points="16.36 2.52 .5 14.36 2.57 16.43 16.36 6.48 16.5 6.48 30.29 16.43 32.36 14.36 27.09 10.42 16.5 2.52 16.36 2.52"/>
      <g>
        <polyline class="cls-2" points="27.09 10.42 27.08 3.02 22.05 3.02 22.05 6.66"/>
        <rect class="cls-2" x="21.39" y=".38" width="6.11" height="2.65"/>
      </g>
      <g>
        <polyline class="cls-3" points="3.15 16.36 3.15 34.58 29.71 34.58 29.71 16.36"/>
        <rect class="cls-2" x="6.75" y="20.09" width="7.32" height="8.3"/>
        <rect class="cls-2" x="17.77" y="20.09" width="8.51" height="14.38"/>
        <line class="cls-2" x1="10.41" y1="20.09" x2="10.41" y2="28.38"/>
        <line class="cls-2" x1="6.75" y1="24.23" x2="14.07" y2="24.23"/>
        <line class="cls-1" x1="20.19" y1="26.6" x2="20.19" y2="26.6"/>
      </g>
    </g>
  </g>
</svg>