<?xml version="1.0" encoding="UTF-8"?>
<svg id="Layer_2" xmlns="http://www.w3.org/2000/svg" viewBox="0 0 36.92 32.4">
  <defs>
    <style>
      .cls-1, .cls-2 {
        stroke-linecap: round;
      }

      .cls-1, .cls-2, .cls-3 {
        fill: none;
        stroke: #231f20;
      }

      .cls-1, .cls-3 {
        stroke-miterlimit: 10;
      }

      .cls-2 {
        stroke-linejoin: round;
      }
    </style>
  </defs>
  <g id="Layer_1-2" data-name="Layer_1">
    <g>
      <g>
        <path class="cls-2" d="M11.62,18.76L2.87,29.04s-1.1,1.53.32,2.59"/>
        <line class="cls-2" x1="6.18" y1="29.74" x2="13.91" y2="21.87"/>
        <path class="cls-2" d="M16.72,29.95l-.94-1.19s-1.09-1.43,1.23-3.56,2.21-2.07,2.21-2.07c0,0,.55-.43-.38-1.09s-4.36-2.98-4.36-2.98c0,0-1.91-1.6-.23-3.79,1.34-1.75,4.14-5.41,5.21-6.82.25-.32.21-.78-.09-1.06l-2.6-2.47c-.24-.23-.6-.29-.9-.15l-4.41,2.01s-1.17.36-1.55-.45-.21-1.43.81-1.89c.85-.39,4.49-2.06,5.7-2.61.24-.11.52-.09.74.06l3.22,2.21c.94.64,1.79,1.39,2.56,2.24l6.45,7.1c.2.22.53.28.79.14l4-2.12s.94-.96,1.81.02.23,1.68-.17,1.87-5.77,3.11-5.77,3.11c0,0-.94.34-1.49-.13s-2.3-2.09-2.3-2.09"/>
        <path class="cls-2" d="M24.81,12.82l-4.38,4.53s-.47.68.32,1.3,3.57,2.68,3.57,2.68c0,0,1.45,1.51-.15,2.53s-5.7,3.98-5.7,3.98"/>
        <circle class="cls-3" cx="29.67" cy="6.18" r="3"/>
      </g>
      <g>
        <path class="cls-1" d="M4.17.5h8.94"/>
        <line class="cls-1" x1=".5" y1="15.4" x2="10.49" y2="15.4"/>
        <line class="cls-1" x1=".5" y1="2.96" x2="3.5" y2="2.96"/>
      </g>
      <line class="cls-1" x1="2.47" y1="31.9" x2="26.83" y2="31.9"/>
    </g>
  </g>
</svg>